<?xml version="1.0" encoding="UTF-8" ?>
<!DOCTYPE svg PUBLIC "-//W3C//DTD SVG 1.1//EN" "http://www.w3.org/Graphics/SVG/1.1/DTD/svg11.dtd">
<svg width="840pt" height="859pt" viewBox="0 0 840 859" version="1.1" xmlns="http://www.w3.org/2000/svg">
<g id="#f6f6f6ff">
</g>
<g id="#000000ff">
<path fill="#000000" opacity="1.00" d=" M 417.29 2.37 C 421.73 1.32 426.04 3.46 430.13 4.93 C 552.50 52.92 674.99 100.62 797.32 148.71 C 805.26 152.31 804.25 161.76 804.54 168.96 C 804.55 327.33 804.55 485.70 804.54 644.06 C 804.77 649.70 801.19 654.87 796.07 657.08 C 673.31 722.67 550.48 788.13 427.68 853.67 C 423.01 856.58 416.96 856.72 412.30 853.72 C 289.28 788.07 166.27 722.43 43.26 656.77 C 38.29 654.65 35.12 649.42 35.28 644.06 C 35.26 485.70 35.28 327.33 35.27 168.96 C 35.65 161.72 34.73 152.33 42.68 148.70 C 163.62 101.26 284.64 53.98 405.61 6.59 C 409.50 5.19 413.25 3.35 417.29 2.37 M 75.92 163.99 C 75.65 164.21 75.12 164.67 74.86 164.90 C 189.95 218.00 304.99 271.19 420.00 324.48 C 534.73 271.38 649.51 218.39 764.23 165.27 C 764.45 165.04 764.88 164.57 765.10 164.34 C 650.03 119.44 535.08 74.24 419.99 29.39 C 305.29 74.22 190.63 119.17 75.92 163.99 M 61.77 188.01 C 61.67 337.04 61.76 486.06 61.73 635.09 C 61.41 637.23 64.01 637.67 65.35 638.61 C 179.21 699.22 292.94 760.08 406.85 820.60 C 406.82 662.83 407.00 505.06 406.76 347.30 C 291.70 294.34 176.89 240.82 61.77 188.01 M 433.22 347.35 C 433.03 505.12 433.15 662.91 433.15 820.69 C 547.52 759.96 661.65 698.78 775.95 637.93 C 776.97 637.29 778.64 636.62 778.27 635.09 C 778.25 486.11 778.30 337.14 778.25 188.16 C 663.05 240.75 548.31 294.47 433.22 347.35 Z" />
</g>
</svg>
