<?xml version="1.0" encoding="UTF-8" ?>
<!DOCTYPE svg PUBLIC "-//W3C//DTD SVG 1.1//EN" "http://www.w3.org/Graphics/SVG/1.1/DTD/svg11.dtd">
<svg width="830pt" height="480pt" viewBox="0 0 830 480" version="1.1" xmlns="http://www.w3.org/2000/svg">
<g id="#f1f1f1ff">
</g>
<g id="#000000ff">
<path fill="#000000" opacity="1.00" d=" M 398.45 60.64 C 437.31 57.40 476.71 66.00 511.28 83.84 C 568.71 113.79 613.45 163.79 646.16 218.95 C 650.86 227.35 657.90 236.73 653.80 246.83 C 646.65 262.00 637.05 275.86 627.76 289.77 C 596.94 333.06 558.26 372.10 510.57 396.49 C 464.61 420.36 409.57 426.81 359.68 412.27 C 327.61 403.28 298.15 386.52 272.29 365.73 C 233.65 334.21 202.04 294.48 178.08 250.85 C 174.45 244.94 173.92 237.26 177.17 231.07 C 185.64 214.49 196.06 198.99 206.89 183.88 C 237.38 142.35 275.59 105.29 322.09 82.23 C 345.88 70.29 371.95 63.02 398.45 60.64 M 387.33 102.42 C 342.18 110.14 302.70 136.96 271.29 169.30 C 250.67 190.53 232.79 214.39 217.87 239.94 C 232.18 264.52 249.30 287.49 268.84 308.16 C 292.80 333.09 320.80 354.94 353.13 367.82 C 386.65 381.56 424.85 383.85 459.66 373.68 C 491.09 364.93 519.24 346.95 543.44 325.40 C 570.71 300.86 593.59 271.65 612.12 240.05 C 593.08 207.34 569.13 177.36 540.75 152.28 C 516.55 131.29 488.55 113.88 457.39 105.61 C 434.62 99.65 410.53 98.17 387.33 102.42 Z" />
<path fill="#000000" opacity="1.00" d=" M 406.41 160.52 C 438.83 156.42 472.45 174.95 486.53 204.39 C 501.37 232.81 496.16 269.97 474.41 293.44 C 456.38 314.04 427.13 323.84 400.30 318.63 C 368.60 312.98 341.96 286.46 336.38 254.71 C 332.15 232.77 337.85 209.14 351.45 191.44 C 364.55 174.20 384.85 162.72 406.41 160.52 M 409.37 200.44 C 384.49 203.12 367.71 232.16 377.92 255.05 C 383.20 268.23 395.94 278.09 410.07 279.71 C 424.96 281.67 440.62 274.33 448.63 261.62 C 456.91 248.81 457.23 231.15 448.61 218.42 C 440.51 205.40 424.54 198.03 409.37 200.44 Z" />
</g>
</svg>
