<svg id="Group_32" data-name="Group 32" xmlns="http://www.w3.org/2000/svg" xmlns:xlink="http://www.w3.org/1999/xlink" width="67" height="67" viewBox="0 0 67 67">
  <defs>
    <linearGradient id="linear-gradient" x2="1" y2="1" gradientUnits="objectBoundingBox">
      <stop offset="0" stop-color="#401091"/>
      <stop offset="1" stop-color="#0b0239"/>
    </linearGradient>
    <clipPath id="clip-path">
      <rect id="Rectangle_8038" data-name="Rectangle 8038" width="67" height="67" fill="url(#linear-gradient)"/>
    </clipPath>
  </defs>
  <g id="Mask_Group_32" data-name="Mask Group 32" clip-path="url(#clip-path)">
    <path id="Path_8541" data-name="Path 8541" d="M5.96,0A6,6,0,0,0,0,5.96v20.86a6,6,0,0,0,5.96,5.96h20.86a6,6,0,0,0,5.96-5.96V5.96A6,6,0,0,0,26.821,0ZM40.231,0a6,6,0,0,0-5.96,5.96v20.86a6,6,0,0,0,5.96,5.96h20.86a6,6,0,0,0,5.96-5.96V5.96A6,6,0,0,0,61.091,0ZM5.96,4.47h20.86a1.44,1.44,0,0,1,1.49,1.49v20.86a1.441,1.441,0,0,1-1.49,1.49H5.96a1.44,1.44,0,0,1-1.49-1.49V5.96A1.44,1.44,0,0,1,5.96,4.47Zm34.271,0h20.86a1.44,1.44,0,0,1,1.49,1.49v20.86a1.44,1.44,0,0,1-1.49,1.49H40.231a1.441,1.441,0,0,1-1.49-1.49V5.96a1.44,1.44,0,0,1,1.49-1.49M5.96,34.271A6,6,0,0,0,0,40.231v20.86a6,6,0,0,0,5.96,5.96h20.86a6,6,0,0,0,5.96-5.96V40.231a6,6,0,0,0-5.96-5.96Zm34.271,0a6,6,0,0,0-5.96,5.96v20.86a6,6,0,0,0,5.96,5.96h20.86a6,6,0,0,0,5.96-5.96V40.231a6,6,0,0,0-5.96-5.96ZM5.96,38.741h20.86a1.441,1.441,0,0,1,1.49,1.49v20.86a1.44,1.44,0,0,1-1.49,1.49H5.96a1.44,1.44,0,0,1-1.49-1.49V40.231A1.44,1.44,0,0,1,5.96,38.741Zm34.271,0h20.86a1.44,1.44,0,0,1,1.49,1.49v20.86a1.44,1.44,0,0,1-1.49,1.49H40.231a1.44,1.44,0,0,1-1.49-1.49V40.231a1.441,1.441,0,0,1,1.49-1.49" fill="url(#linear-gradient)"/>
  </g>
</svg>
