<svg xmlns="http://www.w3.org/2000/svg" xmlns:xlink="http://www.w3.org/1999/xlink" width="50" height="50" viewBox="0 0 50 50">
  <defs>
    <linearGradient id="linear-gradient" x2="1" y2="1" gradientUnits="objectBoundingBox">
      <stop offset="0" stop-color="#401091"/>
      <stop offset="1" stop-color="#0b0239"/>
    </linearGradient>
    <clipPath id="clip-path">
      <rect id="Rectangle_8029" data-name="Rectangle 8029" width="50" height="50" stroke="#fff" stroke-linecap="square" stroke-linejoin="bevel" stroke-width="1" fill="url(#linear-gradient)"/>
    </clipPath>
  </defs>
  <g id="Icon" transform="translate(0 -0.11)">
    <g id="Group_31" data-name="Group 31" transform="translate(0 0.11)" clip-path="url(#clip-path)">
      <path id="Path_8540" data-name="Path 8540" d="M44.386,9.864H41.92v-7.4A2.243,2.243,0,0,0,40.934.493,3.314,3.314,0,0,0,38.715,0L3.946,9.864A5.039,5.039,0,0,0,0,14.8V44.386a4.946,4.946,0,0,0,4.932,4.932H44.386a4.946,4.946,0,0,0,4.932-4.932V14.8a4.946,4.946,0,0,0-4.932-4.932Zm-7.4,0H22.439L36.988,5.671ZM4.932,44.386V14.8H44.386v7.4H39.454a7.4,7.4,0,1,0,0,14.8h4.932v7.4ZM44.386,27.125v4.932H39.454a2.466,2.466,0,0,1,0-4.932Z" transform="translate(0 0.743)" stroke="#fff" stroke-width="1" fill="url(#linear-gradient)"/>
    </g>
  </g>
</svg>
