<svg xmlns="http://www.w3.org/2000/svg" xmlns:xlink="http://www.w3.org/1999/xlink" width="64.516" height="64.444" viewBox="0 0 64.516 64.444">
  <defs>
    <linearGradient id="linear-gradient" x2="1" y2="1" gradientUnits="objectBoundingBox">
      <stop offset="0" stop-color="#401091"/>
      <stop offset="1" stop-color="#0b0239"/>
    </linearGradient>
    <clipPath id="clip-path">
      <rect id="Rectangle_8040" data-name="Rectangle 8040" width="64.516" height="64.444" fill="url(#linear-gradient)"/>
    </clipPath>
  </defs>
  <g id="icon" clip-path="url(#clip-path)">
    <path id="Path_8542" data-name="Path 8542" d="M20.952.01a5.494,5.494,0,0,0-1.839.41c-2.439,1.017-3.59,3.264-4.916,5.4a48.262,48.262,0,0,1-3.23,4.924,51.292,51.292,0,0,1-4.983,3.277c-2.158,1.346-4.4,2.513-5.432,4.947-1.038,2.459-.236,4.864.366,7.291a46.591,46.591,0,0,1,1.252,5.688A49.094,49.094,0,0,1,.9,37.792C.289,40.288-.539,42.71.482,45.2c1.012,2.468,3.281,3.6,5.436,4.916a47.3,47.3,0,0,1,4.935,3.2,48.5,48.5,0,0,1,3.19,5.014c1.313,2.189,2.44,4.479,4.916,5.519a7.142,7.142,0,0,0,3.659.347,30.585,30.585,0,0,0,3.766-.682,52.053,52.053,0,0,1,5.893-1.225,47.6,47.6,0,0,1,5.739,1.268c2.44.607,4.84,1.419,7.3.406s3.605-3.272,4.932-5.42a49.565,49.565,0,0,1,3.23-4.951,48.038,48.038,0,0,1,5-3.175c2.186-1.309,4.488-2.434,5.534-4.9s.222-4.891-.382-7.366a48.4,48.4,0,0,1-1.253-5.806,51.45,51.45,0,0,1,1.284-5.885,30.366,30.366,0,0,0,.732-3.762,7.087,7.087,0,0,0-.315-3.679c-1.025-2.469-3.31-3.623-5.491-4.971a50.332,50.332,0,0,1-4.995-3.261,48.688,48.688,0,0,1-3.218-4.9C49.06,3.772,47.9,1.555,45.487.534,43.038-.5,40.643.276,38.2.857a48.361,48.361,0,0,1-5.747,1.21A51.444,51.444,0,0,1,26.549.81,30.394,30.394,0,0,0,22.788.093,11.212,11.212,0,0,0,20.952.01Zm.24,4.065a6.99,6.99,0,0,1,1.158.031,27.452,27.452,0,0,1,3.257.614c2.38.571,4.719,1.37,6.83,1.375s4.384-.763,6.692-1.312a17.845,17.845,0,0,1,4.8-.547A17.309,17.309,0,0,1,46.957,8.01c1.242,2,2.3,4.146,3.766,5.617,1.486,1.493,3.682,2.576,5.747,3.852a19.281,19.281,0,0,1,3.888,3.08,5.567,5.567,0,0,1,.023,1.686,27.4,27.4,0,0,1-.626,3.257c-.581,2.377-1.394,4.7-1.406,6.818-.012,2.131.8,4.439,1.371,6.779a18.3,18.3,0,0,1,.575,4.841,18.481,18.481,0,0,1-3.888,3.017c-2.071,1.239-4.276,2.286-5.782,3.794-1.481,1.482-2.557,3.643-3.809,5.672a17.8,17.8,0,0,1-3.037,3.8,17.642,17.642,0,0,1-4.794-.587c-2.3-.573-4.582-1.368-6.7-1.375s-4.445.77-6.826,1.323a27.76,27.76,0,0,1-3.261.6,5.276,5.276,0,0,1-1.682-.051A18.8,18.8,0,0,1,17.5,56.242c-1.243-2.072-2.29-4.277-3.794-5.782S10.039,47.922,8,46.682a17.715,17.715,0,0,1-3.8-3.009,19.087,19.087,0,0,1,.6-4.912c.582-2.364,1.389-4.68,1.391-6.8s-.8-4.384-1.371-6.672a17.032,17.032,0,0,1-.563-4.742,18.2,18.2,0,0,1,3.848-3.1c2.041-1.274,4.215-2.37,5.692-3.837s2.572-3.632,3.825-5.656a17.932,17.932,0,0,1,3.033-3.8,2.532,2.532,0,0,1,.528-.071Zm-.047,14.212a7.169,7.169,0,1,0,7.161,7.161A7.2,7.2,0,0,0,21.145,18.287Zm17.075.465h0a2.017,2.017,0,0,0-1.784,1.04L24.572,40.337a2.021,2.021,0,1,0,3.5,2.024L39.934,21.8a2.017,2.017,0,0,0-1.714-3.048ZM21.145,22.324a3.134,3.134,0,1,1-3.139,3.124A3.089,3.089,0,0,1,21.145,22.324Zm22.212,9.5A7.169,7.169,0,1,0,50.533,39a7.2,7.2,0,0,0-7.176-7.177m0,4.033a3.134,3.134,0,1,1,0,6.267,3.134,3.134,0,0,1,0-6.267" transform="translate(0 0.001)" fill="url(#linear-gradient)"/>
  </g>
</svg>
