<?xml version="1.0" encoding="UTF-8" ?>
<!DOCTYPE svg PUBLIC "-//W3C//DTD SVG 1.1//EN" "http://www.w3.org/Graphics/SVG/1.1/DTD/svg11.dtd">
<svg width="225pt" height="204pt" viewBox="0 0 225 204" version="1.1" xmlns="http://www.w3.org/2000/svg">
<g id="#000000ff">
</g>
<g id="#ffffffff">
<path fill="#ffffff" opacity="1.00" d=" M 153.84 20.77 C 167.65 13.52 186.80 18.99 194.02 33.00 C 202.13 46.74 197.12 66.30 183.17 74.18 C 171.87 80.94 156.30 79.36 146.92 70.00 C 145.90 68.60 144.30 69.59 143.08 70.09 C 125.24 79.03 107.58 88.36 89.67 97.13 C 90.28 100.41 90.32 103.76 89.67 107.05 C 107.76 116.11 125.92 125.05 144.02 134.09 C 146.01 135.48 147.49 132.94 149.01 132.01 C 162.02 121.06 184.04 124.67 192.90 139.13 C 199.77 149.33 199.51 163.48 192.47 173.53 C 183.37 187.61 161.83 190.34 148.83 180.19 C 138.46 172.51 134.67 157.85 138.68 145.80 C 120.90 136.58 102.78 128.00 84.80 119.16 C 74.89 133.83 52.30 136.92 39.18 124.83 C 24.68 112.47 26.18 86.63 42.58 76.58 C 56.16 67.39 75.97 71.71 84.99 85.28 C 102.92 76.41 120.69 67.21 138.73 58.57 C 133.89 44.54 139.94 27.00 153.84 20.77 M 162.30 31.30 C 152.36 33.83 147.14 46.32 151.68 55.35 C 155.36 64.27 167.16 68.28 175.53 63.48 C 185.81 58.87 187.86 43.64 180.18 35.83 C 175.79 30.95 168.46 29.50 162.30 31.30 M 58.35 84.29 C 46.62 84.74 37.84 98.14 43.10 108.87 C 46.92 119.87 62.81 122.87 71.00 115.00 C 76.80 109.89 78.42 100.85 74.89 94.00 C 71.92 87.85 65.02 84.29 58.35 84.29 M 162.34 139.33 C 148.04 142.67 145.72 164.77 158.80 171.18 C 169.52 178.29 185.95 168.93 184.66 155.98 C 185.81 144.47 172.89 135.68 162.34 139.33 Z" />
</g>
</svg>
